<svg width="128" height="128" viewBox="0 0 128 128" fill="none" xmlns="http://www.w3.org/2000/svg">
<g filter="url(#filter0_i_1695_17250)">
<rect x="2.60156" y="2.60352" width="122" height="122" rx="16.2667" fill="#FA6C37"/>
<rect x="1.30023" y="1.30218" width="124.603" height="124.603" rx="17.568" stroke="url(#paint0_linear_1695_17250)" stroke-width="2.60267"/>
<g filter="url(#filter1_d_1695_17250)">
<path d="M29.4453 33.4291C29.4453 31.9009 30.6841 30.6621 32.2123 30.6621H55.9755C57.5037 30.6621 58.7425 31.9009 58.7425 33.4291V68.5331C58.7425 70.0613 57.5037 71.3001 55.9755 71.3001H32.2123C30.6841 71.3001 29.4453 70.0613 29.4453 68.5331V33.4291Z" fill="url(#paint1_linear_1695_17250)" shape-rendering="crispEdges"/>
<path d="M67.2481 59.8911C67.2481 58.3629 68.487 57.1241 70.0151 57.1241H93.7783C95.3065 57.1241 96.5453 58.3629 96.5453 59.8911V94.9951C96.5453 96.5233 95.3065 97.7621 93.7783 97.7621H70.0151C68.487 97.7621 67.2481 96.5233 67.2481 94.9951V59.8911Z" fill="url(#paint2_linear_1695_17250)" shape-rendering="crispEdges"/>
<path d="M67.2481 33.4291C67.2481 31.9009 68.487 30.6621 70.0151 30.6621H93.7783C95.3065 30.6621 96.5453 31.9009 96.5453 33.4291V45.8514C96.5453 47.3796 95.3065 48.6184 93.7783 48.6184H70.0151C68.487 48.6184 67.2481 47.3796 67.2481 45.8514V33.4291Z" fill="url(#paint3_linear_1695_17250)" shape-rendering="crispEdges"/>
<path d="M29.4453 82.5728C29.4453 81.0446 30.6841 79.8058 32.2123 79.8058H55.9755C57.5037 79.8058 58.7425 81.0446 58.7425 82.5728V94.9951C58.7425 96.5233 57.5037 97.7621 55.9755 97.7621H32.2123C30.6841 97.7621 29.4453 96.5233 29.4453 94.9951V82.5728Z" fill="url(#paint4_linear_1695_17250)" shape-rendering="crispEdges"/>
</g>
</g>
<defs>
<filter id="filter0_i_1695_17250" x="-4.55467" y="-1.62667" width="131.758" height="128.834" filterUnits="userSpaceOnUse" color-interpolation-filters="sRGB">
<feFlood flood-opacity="0" result="BackgroundImageFix"/>
<feBlend mode="normal" in="SourceGraphic" in2="BackgroundImageFix" result="shape"/>
<feColorMatrix in="SourceAlpha" type="matrix" values="0 0 0 0 0 0 0 0 0 0 0 0 0 0 0 0 0 0 127 0" result="hardAlpha"/>
<feOffset dx="-4.55467" dy="-1.62667"/>
<feGaussianBlur stdDeviation="7.79173"/>
<feComposite in2="hardAlpha" operator="arithmetic" k2="-1" k3="1"/>
<feColorMatrix type="matrix" values="0 0 0 0 1 0 0 0 0 1 0 0 0 0 1 0 0 0 0.3 0"/>
<feBlend mode="normal" in2="shape" result="effect1_innerShadow_1695_17250"/>
</filter>
<filter id="filter1_d_1695_17250" x="10.2081" y="15.0319" width="105.576" height="105.574" filterUnits="userSpaceOnUse" color-interpolation-filters="sRGB">
<feFlood flood-opacity="0" result="BackgroundImageFix"/>
<feColorMatrix in="SourceAlpha" type="matrix" values="0 0 0 0 0 0 0 0 0 0 0 0 0 0 0 0 0 0 127 0" result="hardAlpha"/>
<feOffset dy="3.60698"/>
<feGaussianBlur stdDeviation="9.6186"/>
<feComposite in2="hardAlpha" operator="out"/>
<feColorMatrix type="matrix" values="0 0 0 0 0.354167 0 0 0 0 0.0984099 0 0 0 0 0.00295138 0 0 0 0.3 0"/>
<feBlend mode="normal" in2="BackgroundImageFix" result="effect1_dropShadow_1695_17250"/>
<feBlend mode="normal" in="SourceGraphic" in2="effect1_dropShadow_1695_17250" result="shape"/>
</filter>
<linearGradient id="paint0_linear_1695_17250" x1="-3.09178" y1="-24.8871" x2="238.631" y2="158.113" gradientUnits="userSpaceOnUse">
<stop offset="0.119124" stop-color="white"/>
<stop offset="0.741773" stop-color="white" stop-opacity="0.2"/>
</linearGradient>
<linearGradient id="paint1_linear_1695_17250" x1="74.3594" y1="48.8374" x2="43.4442" y2="97.1052" gradientUnits="userSpaceOnUse">
<stop stop-color="white"/>
<stop offset="1" stop-color="white" stop-opacity="0.6"/>
</linearGradient>
<linearGradient id="paint2_linear_1695_17250" x1="74.3594" y1="48.8374" x2="43.4442" y2="97.1052" gradientUnits="userSpaceOnUse">
<stop stop-color="white"/>
<stop offset="1" stop-color="white" stop-opacity="0.6"/>
</linearGradient>
<linearGradient id="paint3_linear_1695_17250" x1="74.3594" y1="48.8374" x2="43.4442" y2="97.1052" gradientUnits="userSpaceOnUse">
<stop stop-color="white"/>
<stop offset="1" stop-color="white" stop-opacity="0.6"/>
</linearGradient>
<linearGradient id="paint4_linear_1695_17250" x1="74.3594" y1="48.8374" x2="43.4442" y2="97.1052" gradientUnits="userSpaceOnUse">
<stop stop-color="white"/>
<stop offset="1" stop-color="white" stop-opacity="0.6"/>
</linearGradient>
</defs>
</svg>
